<svg width="120" height="120" viewBox="0 0 120 120" fill="none" xmlns="http://www.w3.org/2000/svg">
<path d="M48.9322 49.3684C44.4742 49.3684 40.1162 48.046 36.4099 45.5686C32.7036 43.0911 29.8155 39.5699 28.111 35.4505C26.4065 31.3312 25.9622 26.7987 26.8344 22.4268C27.7065 18.0548 29.8559 14.0399 33.0106 10.8898C36.1653 7.73983 40.1834 5.59637 44.5567 4.73068C48.9299 3.865 53.4617 4.31599 57.5785 6.0266C61.6953 7.73721 65.2123 10.6305 67.6842 14.3405C70.1562 18.0505 71.4722 22.4104 71.4656 26.8684C71.448 32.8362 69.0672 38.5539 64.8442 42.7706C60.6213 46.9874 54.9 49.3596 48.9322 49.3684ZM48.9322 11.0018C45.7941 11.0018 42.7265 11.9323 40.1172 13.6758C37.5079 15.4192 35.4743 17.8973 34.2734 20.7965C33.0724 23.6958 32.7582 26.886 33.3705 29.9639C33.9827 33.0417 35.4938 35.8689 37.7128 38.0879C39.9318 40.3069 42.759 41.818 45.8368 42.4302C48.9146 43.0424 52.1049 42.7282 55.0042 41.5273C57.9034 40.3264 60.3814 38.2927 62.1249 35.6835C63.8683 33.0742 64.7989 30.0066 64.7989 26.8684C64.7989 22.6603 63.1272 18.6246 60.1517 15.649C57.1761 12.6734 53.1403 11.0018 48.9322 11.0018Z" fill="#676685"/>
<path d="M54.7342 105.599C54.0056 104.87 53.4437 103.993 53.0869 103.026C52.7301 102.059 52.587 101.027 52.6675 99.9993H13.3341V80.7326C18.0592 75.6877 23.7917 71.6921 30.1599 69.0047C36.5281 66.3173 43.3901 64.9981 50.3008 65.1326H52.7008C52.5478 64.015 52.6547 62.8772 53.0131 61.8076C53.3716 60.7381 53.9719 59.7656 54.7675 58.9659L55.1675 58.5993C53.6008 58.5993 51.8342 58.3993 50.3008 58.3993C42.1688 58.2062 34.0955 59.8226 26.6647 63.1316C19.2339 66.4406 12.6312 71.3595 7.33415 77.5326C6.90141 78.1096 6.66748 78.8114 6.66748 79.5326V99.9993C6.66748 101.767 7.36986 103.463 8.6201 104.713C9.87034 105.964 11.566 106.666 13.3341 106.666H55.6675L54.7342 105.599Z" fill="#676685"/>
<path d="M112.266 77.7349L105.599 75.7015C105.123 74.0709 104.475 72.4954 103.666 71.0015L106.999 64.8015C107.108 64.5535 107.134 64.2773 107.074 64.0134C107.014 63.7494 106.871 63.5116 106.666 63.3349L101.833 58.5015C101.65 58.3037 101.406 58.173 101.14 58.1307C100.874 58.0884 100.601 58.1368 100.366 58.2682L94.2326 61.6015C92.7241 60.7489 91.1254 60.0669 89.4659 59.5682L87.4326 52.9015C87.3463 52.6561 87.1826 52.4454 86.9662 52.3011C86.7497 52.1569 86.4923 52.0868 86.2326 52.1015H79.3992C79.1367 52.0985 78.8805 52.1816 78.6698 52.3382C78.459 52.4947 78.3055 52.716 78.2326 52.9682L76.1992 59.6349C74.5297 60.1206 72.9197 60.7914 71.3992 61.6349L65.3326 58.3015C65.1025 58.1727 64.8355 58.1256 64.5752 58.168C64.3149 58.2104 64.0766 58.3397 63.8992 58.5349L58.9659 63.3349C58.783 63.5275 58.6653 63.7727 58.6294 64.0359C58.5935 64.2991 58.6412 64.567 58.7659 64.8015L62.0992 70.8682C61.2184 72.3711 60.5137 73.9706 59.9992 75.6349L53.3326 77.6349C53.0804 77.7078 52.8591 77.8614 52.7025 78.0721C52.546 78.2828 52.4629 78.539 52.4659 78.8015V85.6349C52.4856 85.8756 52.5796 86.1044 52.7348 86.2895C52.89 86.4745 53.0989 86.6069 53.3326 86.6682L59.9992 88.7015C60.4919 90.3367 61.1626 91.9128 61.9992 93.4015L58.6659 99.7682C58.5387 99.9963 58.4894 100.26 58.5255 100.518C58.5616 100.777 58.6811 101.017 58.8659 101.202L63.6992 106.035C63.888 106.223 64.1314 106.347 64.3948 106.389C64.6581 106.431 64.928 106.389 65.1659 106.268L71.3992 102.935C72.8816 103.735 74.4463 104.372 76.0659 104.835L78.0659 111.502C78.1479 111.748 78.3039 111.964 78.5126 112.119C78.7213 112.274 78.9727 112.361 79.2326 112.368H86.0659C86.3271 112.366 86.5808 112.281 86.7905 112.125C87.0001 111.969 87.1549 111.751 87.2326 111.502L89.2659 104.668C90.8626 104.201 92.4047 103.564 93.8659 102.768L100.166 106.102C100.397 106.225 100.663 106.268 100.922 106.226C101.181 106.184 101.419 106.058 101.599 105.868L106.666 101.335C106.802 101.139 106.875 100.907 106.875 100.668C106.875 100.43 106.802 100.197 106.666 100.002L103.333 93.7349C104.142 92.2645 104.79 90.711 105.266 89.1015L111.933 87.0682C112.185 86.9953 112.406 86.8417 112.563 86.631C112.719 86.4203 112.802 86.164 112.799 85.9015V78.9015C112.83 78.6765 112.796 78.4475 112.702 78.241C112.607 78.0344 112.456 77.8589 112.266 77.7349ZM82.8326 93.3349C80.6278 93.3415 78.4707 92.6933 76.6347 91.4725C74.7987 90.2516 73.3666 88.5132 72.5198 86.4775C71.673 84.4418 71.4497 82.2005 71.8783 80.0377C72.3068 77.875 73.3678 75.8882 74.9268 74.3291C76.4859 72.7701 78.4727 71.7091 80.6354 71.2806C82.7982 70.852 85.0395 71.0753 87.0752 71.9221C89.1109 72.7689 90.8493 74.201 92.0702 76.037C93.291 77.873 93.9392 80.0301 93.9326 82.2349C93.9238 85.1761 92.7515 87.9943 90.6717 90.074C88.592 92.1538 85.7738 93.3261 82.8326 93.3349Z" fill="#676685"/>
</svg>
