<svg width="120" height="121" viewBox="0 0 120 121" fill="none" xmlns="http://www.w3.org/2000/svg">
<path d="M108 0.375H12C5.4 0.375 0 5.775 0 12.375V120.375L24 96.375H108C114.6 96.375 120 90.975 120 84.375V12.375C120 5.775 114.6 0.375 108 0.375ZM108 84.375H19.2L12 91.575V12.375H108V84.375ZM88.8 56.175L82.2 51.375V45.375L88.8 40.575C89.4 39.975 89.4 39.375 89.4 38.775L83.4 28.575C82.8 27.975 82.2 27.375 81.6 27.975L73.8 30.375C72 29.175 70.8 27.975 68.4 27.375L67.2 19.575C67.2 18.975 66.6 18.375 66 18.375H54C53.4 18.375 52.8 18.975 52.8 19.575L51.6 27.375C49.8 28.575 48 29.175 46.2 30.375L39 27.375C38.4 27.375 37.8 27.375 37.2 27.975L31.2 38.175C30.6 38.775 31.2 39.375 31.8 39.975L38.4 44.775V50.775L31.8 55.575C31.2 56.175 31.2 56.775 31.2 57.375L37.2 67.575C37.8 68.175 38.4 68.775 39 68.175L46.2 66.375C48 67.575 49.2 68.775 51 69.375L52.2 77.175C52.2 77.775 52.8 78.375 54 78.375H66C66.6 78.375 67.2 77.775 67.2 77.175L68.4 69.375C70.2 68.775 72 67.575 73.2 66.375L80.4 69.375C81 69.375 81.6 69.375 82.2 68.775L88.2 58.575C89.4 57.375 89.4 56.775 88.8 56.175ZM60 57.375C55.2 57.375 51 53.175 51 48.375C51 43.575 55.2 39.375 60 39.375C64.8 39.375 69 43.575 69 48.375C69 53.175 64.8 57.375 60 57.375Z" fill="#676685"/>
</svg>
