<svg width="120" height="136" viewBox="0 0 120 136" fill="none" xmlns="http://www.w3.org/2000/svg">
<path d="M41.2495 26.585C41.2495 25.0931 41.8421 23.6624 42.897 22.6075C43.9519 21.5526 45.3827 20.96 46.8745 20.96H95.6245C97.1164 20.96 98.5471 21.5526 99.602 22.6075C100.657 23.6624 101.25 25.0931 101.25 26.585C101.25 28.0768 100.657 29.5075 99.602 30.5624C98.5471 31.6173 97.1164 32.21 95.6245 32.21H46.8745C45.3827 32.21 43.9519 31.6173 42.897 30.5624C41.8421 29.5075 41.2495 28.0768 41.2495 26.585ZM76.0345 43.46H92.7145C93.1645 43.46 93.6895 43.46 94.162 43.4975C94.9042 43.5557 95.629 43.7515 96.2995 44.075C97.3589 44.6144 98.2201 45.4756 98.7595 46.535C99.1018 47.1983 99.2987 47.927 99.337 48.6725C99.3745 49.145 99.3745 49.6775 99.3745 50.12V63.05C99.3745 63.5 99.3745 64.025 99.337 64.4975C99.2797 65.2422 99.0838 65.9696 98.7595 66.6425C98.2188 67.699 97.3577 68.5575 96.2995 69.095C95.629 69.4184 94.9042 69.6142 94.162 69.6725C93.6895 69.71 93.157 69.71 92.7145 69.71H76.0345C75.5845 69.71 75.0595 69.71 74.587 69.6725C73.8423 69.6151 73.1148 69.4193 72.442 69.095C71.3866 68.5562 70.5283 67.6979 69.9895 66.6425C69.6652 65.9696 69.4693 65.2422 69.412 64.4975C69.3745 64.025 69.3745 63.4925 69.3745 63.05V50.12C69.3745 49.67 69.3745 49.145 69.412 48.6725C69.4702 47.9303 69.6661 47.2055 69.9895 46.535C70.527 45.4768 71.3855 44.6157 72.442 44.075C73.1148 43.7506 73.8423 43.5548 74.587 43.4975C75.0595 43.46 75.592 43.46 76.0345 43.46ZM76.8745 50.96V62.21H91.8745V50.96H76.8745ZM43.1245 49.085C43.1245 48.0904 43.5196 47.1366 44.2229 46.4333C44.9261 45.73 45.8799 45.335 46.8745 45.335H56.2495C57.2441 45.335 58.1979 45.73 58.9012 46.4333C59.6044 47.1366 59.9995 48.0904 59.9995 49.085C59.9995 50.0795 59.6044 51.0334 58.9012 51.7366C58.1979 52.4399 57.2441 52.835 56.2495 52.835H46.8745C45.8799 52.835 44.9261 52.4399 44.2229 51.7366C43.5196 51.0334 43.1245 50.0795 43.1245 49.085ZM46.8745 62.21C45.8799 62.21 44.9261 62.605 44.2229 63.3083C43.5196 64.0116 43.1245 64.9654 43.1245 65.96C43.1245 66.9545 43.5196 67.9084 44.2229 68.6116C44.9261 69.3149 45.8799 69.71 46.8745 69.71H56.2495C57.2441 69.71 58.1979 69.3149 58.9012 68.6116C59.6044 67.9084 59.9995 66.9545 59.9995 65.96C59.9995 64.9654 59.6044 64.0116 58.9012 63.3083C58.1979 62.605 57.2441 62.21 56.2495 62.21H46.8745ZM43.1245 86.585C43.1245 85.5904 43.5196 84.6366 44.2229 83.9333C44.9261 83.23 45.8799 82.835 46.8745 82.835H95.6245C96.6191 82.835 97.5729 83.23 98.2762 83.9333C98.9794 84.6366 99.3745 85.5904 99.3745 86.585C99.3745 87.5795 98.9794 88.5334 98.2762 89.2366C97.5729 89.9399 96.6191 90.335 95.6245 90.335H46.8745C45.8799 90.335 44.9261 89.9399 44.2229 89.2366C43.5196 88.5334 43.1245 87.5795 43.1245 86.585Z" fill="#676685"/>
<path d="M92.4075 0.334961H50.1C46.035 0.334961 42.75 0.334961 40.1025 0.552461C37.365 0.777461 34.965 1.24996 32.745 2.37496C29.2152 4.1729 26.3454 7.04261 24.5475 10.5725C23.4225 12.7925 22.95 15.1925 22.725 17.9225C22.5 20.585 22.5 23.87 22.5 27.935V105.335H3.75C2.75544 105.335 1.80161 105.73 1.09835 106.433C0.395089 107.137 0 108.09 0 109.085C0 121.25 4.11 128.105 9 131.772C11.355 133.542 13.7175 134.427 15.495 134.87C16.545 135.132 17.6175 135.32 18.6975 135.335C31.125 135.425 72.6 135.335 94.62 135.335C99.7875 135.335 105.008 135.71 109.763 133.287C115.86 130.182 119.243 124.4 119.783 117.74C120 115.085 120 111.815 120 107.75V27.9275C120 23.8625 120 20.5775 119.783 17.93C119.558 15.1925 119.085 12.7925 117.952 10.5725C116.157 7.04375 113.29 4.17417 109.763 2.37496C107.543 1.24996 105.143 0.777461 102.413 0.552461C99.75 0.334961 96.4725 0.334961 92.4075 0.334961ZM95.9925 125.772C93.3825 123.815 89.9925 119.42 89.9925 109.085C89.9925 108.09 89.5974 107.137 88.8942 106.433C88.1909 105.73 87.2371 105.335 86.2425 105.335H30V28.085C30 23.825 30 20.855 30.195 18.5375C30.375 16.2725 30.72 14.9675 31.2225 13.9775C32.3014 11.8588 34.0238 10.1364 36.1425 9.05746C37.1325 8.55496 38.4375 8.20996 40.7025 8.02996C43.02 7.83496 45.99 7.83496 50.25 7.83496H92.25C96.51 7.83496 99.4875 7.83496 101.797 8.02996C104.062 8.20996 105.367 8.55496 106.357 9.05746C108.476 10.1364 110.199 11.8588 111.277 13.9775C111.78 14.9675 112.125 16.2725 112.305 18.5375C112.5 20.855 112.5 23.825 112.5 28.085V107.585C112.5 111.845 112.5 114.822 112.305 117.132C111.975 121.227 110.16 124.67 106.357 126.612C102.982 128.33 99 128.03 95.9925 125.772ZM87.6 127.835H18.795C16.867 127.687 15.0265 126.969 13.5075 125.772C11.235 124.07 8.3775 120.522 7.6725 112.835H82.6425C83.1675 119.555 85.065 124.4 87.615 127.835" fill="#676685"/>
</svg>
