<svg width="120" height="132" viewBox="0 0 120 132" fill="none" xmlns="http://www.w3.org/2000/svg">
<path fill-rule="evenodd" clip-rule="evenodd" d="M32.5714 0C35.4117 0 37.7143 2.30256 37.7143 5.14286V12H82.2857V5.14286C82.2857 2.30256 84.5883 0 87.4286 0C90.2688 0 92.5714 2.30256 92.5714 5.14286V12H104.571C113.092 12 120 18.9076 120 27.4286V48V116.571C120 125.092 113.092 132 104.571 132H15.4286C6.90761 132 0 125.092 0 116.571V48V27.4286C0 18.9076 6.90761 12 15.4286 12H27.4286V5.14286C27.4286 2.30256 29.7311 0 32.5714 0ZM32.5714 22.2857H15.4286C12.5883 22.2857 10.2857 24.5883 10.2857 27.4286V42.8571H109.714V27.4286C109.714 24.5883 107.412 22.2857 104.571 22.2857H87.4286H32.5714ZM109.714 53.1429H10.2857V116.571C10.2857 119.412 12.5883 121.714 15.4286 121.714H104.571C107.412 121.714 109.714 119.412 109.714 116.571V53.1429Z" fill="#676685"/>
</svg>
