<svg width="130" height="106" viewBox="0 0 130 106" fill="none" xmlns="http://www.w3.org/2000/svg">
<path d="M8 16.9997L40.9992 5L73.9984 16.9997L58.9988 25.9994V34.9992C58.9988 34.9992 54.9969 31.9993 40.9992 31.9993C27.0015 31.9993 22.9996 34.9992 22.9996 34.9992V25.9994L8 16.9997ZM8 16.9997V40.999" stroke="#676685" stroke-width="9" stroke-linecap="round" stroke-linejoin="round"/>
<path d="M58.9987 31.9989V37.3327C58.9987 47.6404 50.9409 55.9982 40.9991 55.9982C31.0574 55.9982 22.9996 47.6404 22.9996 37.3327V31.9989M84.9061 47.1785C84.9061 47.1785 87.816 45.0605 97.9977 45.0605C108.179 45.0605 111.089 47.1725 111.089 47.1725M84.9061 47.1785V40.9986L73.9983 34.9988L97.9977 25.999L121.997 34.9988L111.089 40.9986V47.1725M84.9061 47.1785V48.9064C84.9061 52.3785 86.2854 55.7084 88.7405 58.1636C91.1957 60.6188 94.5256 61.9981 97.9977 61.9981C101.47 61.9981 104.8 60.6188 107.255 58.1636C109.71 55.7084 111.089 52.3785 111.089 48.9064V47.1725M88.998 100.997H111.227C115.865 100.997 119.549 98.7411 122.861 95.5852C129.641 89.1293 118.511 83.9695 114.269 81.4435C110.497 79.2169 106.308 77.7875 101.961 77.2437C97.6147 76.6998 93.2027 77.0531 88.998 78.2816M19.3096 76.5537C13.6518 79.7156 -1.18586 86.1654 7.84993 94.2352C12.2658 98.1771 17.1797 100.997 23.3655 100.997H58.6327C64.8125 100.997 69.7324 98.1771 74.1483 94.2352C83.1841 86.1654 68.3465 79.7156 62.6886 76.5537C49.4169 69.1439 32.5813 69.1439 19.3096 76.5537Z" stroke="#676685" stroke-width="9" stroke-linecap="round" stroke-linejoin="round"/>
</svg>
