<svg width="21" height="21" viewBox="0 0 21 21" fill="none" xmlns="http://www.w3.org/2000/svg">
<path d="M7.68409 7.63822H5.78455V4.77458H7.68409V2.89413H5.78455V1.93958C5.78455 0.880039 6.63409 0.0400391 7.68409 0.0400391H13.3923V6.68368L15.75 5.25186L18.1364 6.68368V0.0400391H19.0909C20.0932 0.0400391 21 0.956403 21 1.93958V15.2746C21 16.2578 20.0932 17.1837 19.0909 17.1837H7.68409C6.68182 17.1837 5.78455 16.2769 5.78455 15.2746V14.32H7.68409V12.4109H5.78455V9.54731H7.68409V7.63822ZM0 16.2291H1.90909V13.3655H0V11.4564H1.90909V8.59277H0V6.68368H1.90909V3.82004H3.81818V6.68368H1.90909V8.59277H3.81818V11.4564H1.90909V13.3655H3.81818V16.2291H1.90909V18.1382H3.81818V19.0928H19.0909V21.0019H3.81818C3.31186 21.0019 2.82627 20.8007 2.46825 20.4427C2.11023 20.0847 1.90909 19.5991 1.90909 19.0928V18.1382H0V16.2291Z" fill="#6B696E"/>
</svg>
