<svg width="120" height="120" viewBox="0 0 120 120" fill="none" xmlns="http://www.w3.org/2000/svg">
<path fill-rule="evenodd" clip-rule="evenodd" d="M60 9C31.8335 9 9 31.8335 9 60C9 72.9156 13.8012 84.7104 21.7162 93.696C25.0367 79.8576 37.4911 69.573 52.3476 69.573H67.6476C82.5054 69.573 94.9608 79.86 98.28 93.7002C106.198 84.714 111 72.918 111 60C111 31.8335 88.1664 9 60 9ZM90.1476 101.14V101.073C90.1476 88.6464 80.0742 78.573 67.6476 78.573H52.3476C39.9212 78.573 29.8477 88.6464 29.8477 101.073V101.136C38.2934 107.337 48.7188 111 60 111C71.2788 111 81.7026 107.339 90.1476 101.14ZM0 60C0 26.8629 26.8629 0 60 0C93.1368 0 120 26.8629 120 60C120 93.1368 93.1368 120 60 120C26.8629 120 0 93.1368 0 60ZM59.9946 31.5C53.3082 31.5 47.8876 36.9205 47.8876 43.607C47.8876 50.2938 53.3082 55.7142 59.9946 55.7142C66.681 55.7142 72.1014 50.2938 72.1014 43.607C72.1014 36.9205 66.681 31.5 59.9946 31.5ZM38.8876 43.607C38.8876 31.9499 48.3378 22.5 59.9946 22.5C71.6514 22.5 81.1014 31.9499 81.1014 43.607C81.1014 55.2642 71.6514 64.7142 59.9946 64.7142C48.3378 64.7142 38.8876 55.2642 38.8876 43.607Z" fill="#676685"/>
</svg>
