<svg width="21" height="21" viewBox="0 0 21 21" fill="none" xmlns="http://www.w3.org/2000/svg">
<path d="M5 2V0H7V2H13V0H15V2H19C19.2652 2 19.5196 2.10536 19.7071 2.29289C19.8946 2.48043 20 2.73478 20 3V8H18V4H15V6H13V4H7V6H5V4H2V18H8V20H1C0.734784 20 0.48043 19.8946 0.292893 19.7071C0.105357 19.5196 0 19.2652 0 19V3C0 2.73478 0.105357 2.48043 0.292893 2.29289C0.48043 2.10536 0.734784 2 1 2H5ZM15 11C13.9391 11 12.9217 11.4214 12.1716 12.1716C11.4214 12.9217 11 13.9391 11 15C11 16.0609 11.4214 17.0783 12.1716 17.8284C12.9217 18.5786 13.9391 19 15 19C16.0609 19 17.0783 18.5786 17.8284 17.8284C18.5786 17.0783 19 16.0609 19 15C19 13.9391 18.5786 12.9217 17.8284 12.1716C17.0783 11.4214 16.0609 11 15 11ZM9 15C9 14.2121 9.1552 13.4319 9.45672 12.7039C9.75825 11.9759 10.2002 11.3145 10.7574 10.7574C11.3145 10.2002 11.9759 9.75825 12.7039 9.45672C13.4319 9.15519 14.2121 9 15 9C15.7879 9 16.5681 9.15519 17.2961 9.45672C18.0241 9.75825 18.6855 10.2002 19.2426 10.7574C19.7998 11.3145 20.2417 11.9759 20.5433 12.7039C20.8448 13.4319 21 14.2121 21 15C21 16.5913 20.3679 18.1174 19.2426 19.2426C18.1174 20.3679 16.5913 21 15 21C13.4087 21 11.8826 20.3679 10.7574 19.2426C9.63214 18.1174 9 16.5913 9 15ZM14 12V15.414L16.293 17.707L17.707 16.293L16 14.586V12H14Z" fill="#6B696E"/>
</svg>
