<svg width="24" height="20" viewBox="0 0 24 20" fill="none" xmlns="http://www.w3.org/2000/svg">
<path d="M7.80006 13.2C7.71044 13.2 7.62081 13.2131 7.53531 13.2409C7.04931 13.3988 6.53819 13.5 6.00006 13.5C5.46194 13.5 4.95081 13.3988 4.46444 13.2409C4.37894 13.2131 4.28969 13.2 4.20006 13.2C1.87281 13.2 -0.0123144 15.093 6.05804e-05 17.4233C0.00531058 18.408 0.814935 19.2 1.80006 19.2H10.2001C11.1852 19.2 11.9948 18.408 12.0001 17.4233C12.0124 15.093 10.1273 13.2 7.80006 13.2ZM6.00006 12C7.98831 12 9.60006 10.3883 9.60006 8.4C9.60006 6.41175 7.98831 4.8 6.00006 4.8C4.01181 4.8 2.40006 6.41175 2.40006 8.4C2.40006 10.3883 4.01181 12 6.00006 12ZM22.2001 0H7.80006C6.80744 0 6.00006 0.834375 6.00006 1.85963V3.6C6.87831 3.6 7.69131 3.85425 8.40006 4.2675V2.4H21.6001V13.2H19.2001V10.8H14.4001V13.2H11.5411C12.2573 13.8259 12.7831 14.6524 13.0294 15.6H22.2001C23.1927 15.6 24.0001 14.7656 24.0001 13.7404V1.85963C24.0001 0.834375 23.1927 0 22.2001 0Z" fill="#6B696E"/>
</svg>
