<svg width="21" height="19" viewBox="0 0 21 19" fill="none" xmlns="http://www.w3.org/2000/svg">
<path d="M7.04999 7.1998C7.96499 7.1998 8.84251 6.83632 9.48951 6.18932C10.1365 5.54232 10.5 4.6648 10.5 3.7498C10.5 2.83481 10.1365 1.95729 9.48951 1.31029C8.84251 0.663286 7.96499 0.299805 7.04999 0.299805C6.13499 0.299805 5.25747 0.663286 4.61047 1.31029C3.96347 1.95729 3.59999 2.83481 3.59999 3.7498C3.59999 4.6648 3.96347 5.54232 4.61047 6.18932C5.25747 6.83632 6.13499 7.1998 7.04999 7.1998ZM15.675 8.3498C16.4375 8.3498 17.1688 8.0469 17.7079 7.50774C18.2471 6.96857 18.55 6.2373 18.55 5.4748C18.55 4.71231 18.2471 3.98104 17.7079 3.44187C17.1688 2.90271 16.4375 2.5998 15.675 2.5998C14.9125 2.5998 14.1812 2.90271 13.6421 3.44187C13.1029 3.98104 12.8 4.71231 12.8 5.4748C12.8 6.2373 13.1029 6.96857 13.6421 7.50774C14.1812 8.0469 14.9125 8.3498 15.675 8.3498ZM0.857241 16.892C0.631376 16.7519 0.44996 16.5505 0.334115 16.3113C0.21827 16.072 0.172763 15.8048 0.202891 15.5408C0.4149 13.8745 1.22725 12.3427 2.48772 11.2324C3.74819 10.1222 5.37027 9.50964 7.04999 9.50964C8.72971 9.50964 10.3518 10.1222 11.6123 11.2324C12.8727 12.3427 13.6851 13.8745 13.8971 15.5408C13.9638 16.0778 13.6993 16.5988 13.2416 16.8909C11.3939 18.0751 9.24463 18.7031 7.04999 18.6998C4.85508 18.7036 2.70538 18.0761 0.857241 16.892ZM15.675 16.3998H15.5531C15.6336 16.0583 15.6543 15.6972 15.6083 15.3269C15.4117 13.746 14.7794 12.2508 13.7821 11.0086C14.4239 10.7557 15.1098 10.6337 15.7994 10.6497C16.4891 10.6658 17.1686 10.8195 17.7979 11.102C18.4273 11.3844 18.9938 11.7898 19.4643 12.2944C19.9347 12.7989 20.2995 13.3924 20.5372 14.04C20.6098 14.2467 20.6083 14.4722 20.5327 14.6779C20.4572 14.8836 20.3124 15.0565 20.1232 15.167C18.7807 15.9761 17.2424 16.4024 15.675 16.3998Z" fill="#6B696E"/>
</svg>
