<svg width="21" height="21" viewBox="0 0 21 21" fill="none" xmlns="http://www.w3.org/2000/svg">
<path d="M10.5 15.75C10.7975 15.75 11.047 15.6492 11.2486 15.4476C11.4502 15.246 11.5507 14.9968 11.55 14.7V10.5C11.55 10.2025 11.4492 9.9533 11.2476 9.7524C11.046 9.5515 10.7968 9.4507 10.5 9.45C10.2032 9.4493 9.954 9.5501 9.7524 9.7524C9.5508 9.9547 9.45 10.2039 9.45 10.5V14.7C9.45 14.9975 9.5508 15.247 9.7524 15.4486C9.954 15.6502 10.2032 15.7507 10.5 15.75ZM10.5 7.35C10.7975 7.35 11.047 7.2492 11.2486 7.0476C11.4502 6.846 11.5507 6.5968 11.55 6.3C11.5493 6.0032 11.4485 5.754 11.2476 5.5524C11.0467 5.3508 10.7975 5.25 10.5 5.25C10.2025 5.25 9.9533 5.3508 9.7524 5.5524C9.5515 5.754 9.4507 6.0032 9.45 6.3C9.4493 6.5968 9.5501 6.84635 9.7524 7.04865C9.9547 7.25095 10.2039 7.3514 10.5 7.35ZM10.5 21C9.0475 21 7.6825 20.7242 6.405 20.1726C5.1275 19.621 4.01625 18.873 3.07125 17.9287C2.12625 16.9844 1.3783 15.8732 0.827401 14.595C0.276501 13.3168 0.000701329 11.9518 1.32911e-06 10.5C-0.00069867 9.0482 0.275101 7.6832 0.827401 6.405C1.3797 5.1268 2.12765 4.01555 3.07125 3.07125C4.01485 2.12695 5.1261 1.379 6.405 0.8274C7.6839 0.2758 9.0489 0 10.5 0C11.9511 0 13.3161 0.2758 14.595 0.8274C15.8739 1.379 16.9851 2.12695 17.9287 3.07125C18.8723 4.01555 19.6206 5.1268 20.1736 6.405C20.7266 7.6832 21.0021 9.0482 21 10.5C20.9979 11.9518 20.7221 13.3168 20.1726 14.595C19.6231 15.8732 18.8751 16.9844 17.9287 17.9287C16.9823 18.873 15.8711 19.6213 14.595 20.1736C13.3189 20.7259 11.9539 21.0014 10.5 21Z"/>
</svg>
