<svg width="21" height="21" viewBox="0 0 21 21" fill="none" xmlns="http://www.w3.org/2000/svg">
<path d="M10.4999 0C16.299 0 20.9998 4.70085 20.9998 10.5C20.9998 16.2991 16.299 21 10.4999 21C4.70081 21 0 16.2991 0 10.5C0 4.70085 4.70081 0 10.4999 0ZM10.4999 13.65C10.2214 13.65 9.95436 13.7606 9.75745 13.9575C9.56054 14.1545 9.44992 14.4215 9.44992 14.7C9.44992 14.9785 9.56054 15.2455 9.75745 15.4425C9.95436 15.6394 10.2214 15.75 10.4999 15.75C10.7784 15.75 11.0455 15.6394 11.2424 15.4425C11.4393 15.2455 11.5499 14.9785 11.5499 14.7C11.5499 14.4215 11.4393 14.1545 11.2424 13.9575C11.0455 13.7606 10.7784 13.65 10.4999 13.65ZM10.4999 4.2C10.2427 4.20003 9.99451 4.29445 9.80232 4.46535C9.61014 4.63625 9.48736 4.87174 9.45727 5.12715L9.44992 5.25V11.55C9.45021 11.8176 9.55269 12.075 9.73641 12.2696C9.92012 12.4642 10.1712 12.5813 10.4384 12.597C10.7055 12.6127 10.9686 12.5258 11.1738 12.354C11.3791 12.1823 11.5109 11.9386 11.5425 11.6728L11.5499 11.55V5.25C11.5499 4.97152 11.4393 4.70445 11.2424 4.50754C11.0455 4.31062 10.7784 4.2 10.4999 4.2Z"/>
</svg>
