<svg width="16" height="18" viewBox="0 0 16 18" fill="none" xmlns="http://www.w3.org/2000/svg">
<path fill-rule="evenodd" clip-rule="evenodd" d="M8.74964 1.29248C8.74964 0.87827 8.41394 0.54248 7.99964 0.54248C7.58547 0.54248 7.24968 0.87827 7.24968 1.29248V1.83613C4.0823 2.20733 1.62468 4.9004 1.62468 8.16748V13.4591H1.33301C0.918798 13.4591 0.583008 13.7949 0.583008 14.2091C0.583008 14.6234 0.918798 14.9591 1.33301 14.9591H2.37468H13.6246H14.6663C15.0805 14.9591 15.4163 14.6234 15.4163 14.2091C15.4163 13.7949 15.0805 13.4591 14.6663 13.4591H14.3746V8.16748C14.3746 4.9004 11.917 2.20733 8.74964 1.83613V1.29248ZM12.8746 13.4591V8.16748C12.8746 5.47509 10.692 3.29248 7.99964 3.29248C5.30729 3.29248 3.12468 5.47509 3.12468 8.16748V13.4591H12.8746ZM5.99968 16.7085C5.99968 17.1228 6.33547 17.4585 6.74968 17.4585H9.24964C9.66394 17.4585 9.99964 17.1228 9.99964 16.7085C9.99964 16.2943 9.66394 15.9585 9.24964 15.9585H6.74968C6.33547 15.9585 5.99968 16.2943 5.99968 16.7085Z" fill="#667085"/>
</svg>
