<svg width="373" height="359" viewBox="0 0 373 359" fill="none" xmlns="http://www.w3.org/2000/svg">
<path fill-rule="evenodd" clip-rule="evenodd" d="M89.7404 69.7699C87.7954 62.5112 92.103 55.0503 99.3617 53.1053L198.196 26.6226C205.455 24.6777 212.916 28.9853 214.861 36.2439C216.806 43.5026 212.498 50.9635 205.24 52.9085L106.405 79.3912C99.1463 81.3361 91.6853 77.0285 89.7404 69.7699Z" fill="#8D79F3"/>
<path fill-rule="evenodd" clip-rule="evenodd" d="M157.356 322.114C155.411 314.855 159.718 307.394 166.977 305.449L265.812 278.966C273.07 277.021 280.531 281.329 282.476 288.588C284.421 295.846 280.114 303.307 272.855 305.252L174.02 331.735C166.762 333.68 159.301 329.372 157.356 322.114Z" fill="#8D79F3"/>
<path fill-rule="evenodd" clip-rule="evenodd" d="M37.3322 219.042C35.3872 211.784 39.6948 204.323 46.9535 202.378L318.223 129.691C325.482 127.746 332.943 132.054 334.888 139.313C336.833 146.571 332.525 154.032 325.267 155.977L53.9967 228.664C46.7381 230.609 39.2771 226.301 37.3322 219.042Z" fill="#8D79F3"/>
<path fill-rule="evenodd" clip-rule="evenodd" d="M36.1994 151.728C34.2544 144.469 38.562 137.008 45.8207 135.063L285.547 70.8287C292.806 68.8838 300.267 73.1914 302.212 80.45C304.157 87.7086 299.849 95.1696 292.591 97.1146L52.8639 161.349C45.6053 163.294 38.1443 158.987 36.1994 151.728Z" fill="#8D79F3"/>
<path fill-rule="evenodd" clip-rule="evenodd" d="M70.006 277.9C68.0611 270.641 72.3687 263.18 79.6273 261.235L319.354 197.001C326.613 195.056 334.074 199.363 336.019 206.622C337.964 213.881 333.656 221.341 326.397 223.286L86.6706 287.521C79.4119 289.466 71.951 285.158 70.006 277.9Z" fill="#8D79F3"/>
</svg>
