<svg width="41" height="39" viewBox="0 0 41 39" fill="none" xmlns="http://www.w3.org/2000/svg">
<path fill-rule="evenodd" clip-rule="evenodd" d="M9.68449 7.6928C9.4746 6.90947 9.93946 6.1043 10.7228 5.89441L21.3888 3.03646C22.1721 2.82657 22.9773 3.29143 23.1872 4.07476C23.3971 4.8581 22.9322 5.66327 22.1489 5.87316L11.4829 8.73111C10.6996 8.941 9.89438 8.47614 9.68449 7.6928Z" fill="#8D79F3"/>
<path fill-rule="evenodd" clip-rule="evenodd" d="M16.9814 34.9251C16.7715 34.1418 17.2363 33.3366 18.0197 33.1267L28.6857 30.2688C29.469 30.0589 30.2742 30.5238 30.4841 31.3071C30.694 32.0904 30.2291 32.8956 29.4458 33.1055L18.7798 35.9634C17.9964 36.1733 17.1913 35.7085 16.9814 34.9251Z" fill="#8D79F3"/>
<path fill-rule="evenodd" clip-rule="evenodd" d="M4.02873 23.8022C3.81883 23.0189 4.2837 22.2137 5.06703 22.0038L34.3418 14.1596C35.1252 13.9497 35.9303 14.4146 36.1402 15.1979C36.3501 15.9813 35.8852 16.7864 35.1019 16.9963L5.82713 24.8405C5.04379 25.0504 4.23862 24.5855 4.02873 23.8022Z" fill="#8D79F3"/>
<path fill-rule="evenodd" clip-rule="evenodd" d="M3.90641 16.5379C3.69652 15.7546 4.16139 14.9494 4.94472 14.7395L30.8155 7.80747C31.5988 7.59758 32.404 8.06244 32.6139 8.84577C32.8238 9.62911 32.3589 10.4343 31.5756 10.6442L5.70481 17.5762C4.92148 17.7861 4.11631 17.3212 3.90641 16.5379Z" fill="#8D79F3"/>
<path fill-rule="evenodd" clip-rule="evenodd" d="M7.55461 30.1542C7.34471 29.3708 7.80958 28.5657 8.59291 28.3558L34.4637 21.4237C35.247 21.2138 36.0522 21.6787 36.2621 22.462C36.4719 23.2454 36.0071 24.0505 35.2237 24.2604L9.35301 31.1925C8.56967 31.4024 7.7645 30.9375 7.55461 30.1542Z" fill="#8D79F3"/>
</svg>
