<svg width="353" height="318" viewBox="0 0 353 318" fill="none" xmlns="http://www.w3.org/2000/svg">
<path d="M160.5 15L334.919 108.957C334.954 108.975 334.955 109.025 334.92 109.044L257.523 151.987C257.509 151.995 257.491 151.995 257.476 151.988L92.0235 67.0121C92.0088 67.0045 91.9913 67.0047 91.9768 67.0127L15.0816 108.956C15.0466 108.975 15.0469 109.025 15.082 109.044L176 194.5" stroke="#8C78F1" stroke-width="30" stroke-linecap="round"/>
<path d="M172.478 240.989L56.0724 182.536C56.0392 182.52 56 182.544 56 182.581V228.968C56 228.988 56.0111 229.005 56.0285 229.014L172.479 284.49C172.492 284.496 172.508 284.496 172.521 284.49L289.471 229.014C289.489 229.005 289.5 228.988 289.5 228.968V182.581C289.5 182.544 289.461 182.52 289.428 182.536L172.522 240.989C172.508 240.996 172.492 240.996 172.478 240.989Z" fill="#8C78F1" stroke="#8C78F1" stroke-linecap="round"/>
<path d="M327.725 149.045L315.225 156.433C315.209 156.442 315.2 156.458 315.2 156.476V256.702V261.292C315.2 275.209 303.918 286.492 290 286.492L292.023 286.529C308.157 286.828 321.164 299.835 321.462 315.969L321.5 318V316.524C321.5 300.168 334.601 286.826 350.954 286.529L353 286.492C339.082 286.492 327.8 275.209 327.8 261.292V256.702V149.088C327.8 149.049 327.758 149.025 327.725 149.045Z" fill="#8C78F1" stroke="#8C78F1" stroke-linecap="round"/>
</svg>
