<svg width="40" height="40" viewBox="0 0 40 40" fill="none" xmlns="http://www.w3.org/2000/svg">
<path d="M39.0617 36.9388L29.6736 27.5525C32.3946 24.2857 33.7515 20.0956 33.4619 15.8539C33.1723 11.6121 31.2585 7.64536 28.1187 4.7787C24.9789 1.91204 20.8548 0.366227 16.6043 0.462827C12.3537 0.559426 8.30411 2.291 5.29777 5.29734C2.29143 8.30368 0.559854 12.3533 0.463254 16.6038C0.366654 20.8543 1.91247 24.9785 4.77913 28.1183C7.64578 31.2581 11.6126 33.1718 15.8543 33.4614C20.096 33.751 24.2861 32.3942 27.5529 29.6731L36.9392 39.0613C37.0785 39.2006 37.244 39.3112 37.4261 39.3866C37.6082 39.462 37.8033 39.5008 38.0004 39.5008C38.1975 39.5008 38.3927 39.462 38.5748 39.3866C38.7569 39.3112 38.9223 39.2006 39.0617 39.0613C39.201 38.9219 39.3116 38.7564 39.387 38.5743C39.4624 38.3923 39.5013 38.1971 39.5013 38C39.5013 37.8029 39.4624 37.6077 39.387 37.4257C39.3116 37.2436 39.201 37.0781 39.0617 36.9388ZM3.50043 17C3.50043 14.33 4.29219 11.7199 5.77559 9.4998C7.25899 7.27974 9.3674 5.54941 11.8342 4.52763C14.301 3.50584 17.0154 3.2385 19.6341 3.7594C22.2529 4.2803 24.6584 5.56605 26.5464 7.45406C28.4344 9.34207 29.7201 11.7475 30.241 14.3663C30.7619 16.985 30.4946 19.6994 29.4728 22.1662C28.451 24.633 26.7207 26.7414 24.5006 28.2248C22.2806 29.7082 19.6705 30.5 17.0004 30.5C13.4212 30.496 9.98975 29.0724 7.45887 26.5416C4.92799 24.0107 3.5044 20.5792 3.50043 17Z" fill="#333333"/>
</svg>
