<svg width="58" height="64" viewBox="0 0 58 64" fill="none" xmlns="http://www.w3.org/2000/svg">
<path d="M14.1037 61.2542V52.9687C13.6513 48.4708 10.6671 45.0603 7.90918 40.9538M36.2484 61.2542V56.2835C50.4876 56.2835 48.9042 39.7126 48.9042 39.7126C48.9042 39.7126 55.2321 39.7126 55.2321 33.0831L48.9042 23.1418C48.9042 9.88275 38.1479 3.37505 26.7595 3.25615C20.3794 3.18945 15.284 4.79318 11.4762 7.60332" stroke="#8D79F3" stroke-width="5" stroke-linecap="round" stroke-linejoin="round"/>
<path d="M14.1037 61.2542V52.9687C13.6513 48.4708 10.6671 45.0603 7.90918 40.9538M36.2484 61.2542V56.2835C50.4876 56.2835 48.9042 39.7126 48.9042 39.7126C48.9042 39.7126 55.2321 39.7126 55.2321 33.0831L48.9042 23.1418C48.9042 9.88275 38.1479 3.37505 26.7595 3.25615C20.3794 3.18945 15.284 4.79318 11.4762 7.60332" stroke="#646464" stroke-width="5" stroke-linecap="round" stroke-linejoin="round"/>
<path d="M32.0322 17.7536L37.8323 25.0037L32.0322 32.2538M8.83183 17.7536L3.03174 25.0037L8.83183 32.2538M23.3321 14.8535L17.532 35.1538" stroke="#8D79F3" stroke-width="5" stroke-linecap="round" stroke-linejoin="round"/>
</svg>
