<svg width="58" height="58" viewBox="0 0 58 58" fill="none" xmlns="http://www.w3.org/2000/svg">
<path d="M29.0001 30.2083C26.7568 30.2083 24.6054 31.0994 23.0191 32.6856C21.4329 34.2719 20.5417 36.4233 20.5417 38.6666C20.5417 40.9099 21.4329 43.0613 23.0191 44.6475C24.6054 46.2338 26.7568 47.1249 29.0001 47.1249C31.2434 47.1249 33.3948 46.2338 34.981 44.6475C36.5673 43.0613 37.4584 40.9099 37.4584 38.6666C37.4584 36.4233 36.5673 34.2719 34.981 32.6856C33.3948 31.0994 31.2434 30.2083 29.0001 30.2083ZM25.3751 38.6666C25.3751 37.7052 25.757 36.7831 26.4368 36.1033C27.1166 35.4235 28.0387 35.0416 29.0001 35.0416C29.9615 35.0416 30.8835 35.4235 31.5633 36.1033C32.2432 36.7831 32.6251 37.7052 32.6251 38.6666C32.6251 39.628 32.2432 40.55 31.5633 41.2298C30.8835 41.9097 29.9615 42.2916 29.0001 42.2916C28.0387 42.2916 27.1166 41.9097 26.4368 41.2298C25.757 40.55 25.3751 39.628 25.3751 38.6666Z" fill="#8D79F3"/>
<path d="M42.3545 12.3636L34.6719 1.59253L6.4235 24.1594L4.8575 24.1424V24.1666H3.625V53.1666H54.375V24.1666H52.0502L47.4247 10.6357L42.3545 12.3636ZM46.9437 24.1666H22.7094L40.7595 18.0138L44.4377 16.8369L46.9437 24.1666ZM37.5792 13.9924L18.9467 20.3434L33.7028 8.55495L37.5792 13.9924ZM8.45833 43.9084V33.42C9.47859 33.0599 10.4053 32.4761 11.1706 31.7112C11.9358 30.9464 12.5202 30.02 12.8808 28.9999H45.1192C45.4795 30.0205 46.0637 30.9473 46.829 31.7126C47.5943 32.4779 48.5212 33.0621 49.5417 33.4224V43.9108C48.5212 44.2711 47.5943 44.8553 46.829 45.6206C46.0637 46.3859 45.4795 47.3128 45.1192 48.3333H12.8857C12.5236 47.3127 11.9382 46.3858 11.1723 45.6202C10.4063 44.8547 9.47914 44.2699 8.45833 43.9084Z" fill="#8D79F3"/>
</svg>
