<svg width="72" height="58" viewBox="0 0 72 58" fill="none" xmlns="http://www.w3.org/2000/svg">
<g clip-path="url(#clip0_2013_1584)">
<path fill-rule="evenodd" clip-rule="evenodd" d="M22.6059 39.9985C22.8624 39.9146 23.1313 39.875 23.4002 39.875C30.3819 39.875 36.0373 45.5934 36.0002 52.6327C35.9844 55.6075 33.5556 58 30.6002 58H5.40018C2.44481 58 0.0159317 55.6075 0.000181741 52.6327C-0.0369433 45.5934 5.61843 39.875 12.6002 39.875C12.8691 39.875 13.1368 39.9146 13.3933 39.9985C14.8524 40.4754 16.3858 40.7812 18.0002 40.7812C19.6146 40.7812 21.1479 40.4754 22.6059 39.9985ZM28.8002 25.375C28.8002 31.3812 23.9649 36.25 18.0002 36.25C12.0354 36.25 7.20018 31.3812 7.20018 25.375C7.20018 19.3688 12.0354 14.5 18.0002 14.5C23.9649 14.5 28.8002 19.3688 28.8002 25.375Z" fill="#8D79F3"/>
<path fill-rule="evenodd" clip-rule="evenodd" d="M22.6059 39.9985C22.8624 39.9146 23.1313 39.875 23.4002 39.875C30.3819 39.875 36.0373 45.5934 36.0002 52.6327C35.9844 55.6075 33.5556 58 30.6002 58H5.40018C2.44481 58 0.0159317 55.6075 0.000181741 52.6327C-0.0369433 45.5934 5.61843 39.875 12.6002 39.875C12.8691 39.875 13.1368 39.9146 13.3933 39.9985C14.8524 40.4754 16.3858 40.7812 18.0002 40.7812C19.6146 40.7812 21.1479 40.4754 22.6059 39.9985ZM28.8002 25.375C28.8002 31.3812 23.9649 36.25 18.0002 36.25C12.0354 36.25 7.20018 31.3812 7.20018 25.375C7.20018 19.3688 12.0354 14.5 18.0002 14.5C23.9649 14.5 28.8002 19.3688 28.8002 25.375Z" fill="#656565"/>
<path d="M66.6002 0H23.4002C20.4223 0 18.0002 2.52051 18.0002 5.61762V10.875C20.6349 10.875 23.0739 11.643 25.2002 12.8914V7.25H64.8002V39.875H57.6002V32.625H43.2002V39.875H34.6232C36.7719 41.7657 38.3492 44.2624 39.0883 47.125H66.6002C69.578 47.125 72.0002 44.6045 72.0002 41.5074V5.61762C72.0002 2.52051 69.578 0 66.6002 0Z" fill="#8D79F3"/>
</g>
<defs>
<clipPath id="clip0_2013_1584">
<rect width="72" height="58" fill="white"/>
</clipPath>
</defs>
</svg>
