<svg width="16" height="11" viewBox="0 0 16 11" fill="none" xmlns="http://www.w3.org/2000/svg">
<path fill-rule="evenodd" clip-rule="evenodd" d="M16 5.5C16 5.73123 15.9063 5.95299 15.7396 6.1165C15.5729 6.28 15.3468 6.37186 15.1111 6.37186L3.03344 6.37186L6.2573 9.53378C6.41432 9.69906 6.49981 9.91766 6.49574 10.1435C6.49168 10.3694 6.39839 10.5849 6.23552 10.7446C6.07265 10.9044 5.85292 10.9959 5.62263 10.9999C5.39234 11.0038 5.16946 10.92 5.00094 10.766L0.259971 6.11611C0.0935034 5.95264 0 5.73104 0 5.5C0 5.26896 0.0935034 5.04736 0.259971 4.88389L5.00094 0.233998C5.16946 0.0799935 5.39234 -0.00384862 5.62263 0.000136593C5.85292 0.0041218 6.07265 0.0956232 6.23552 0.255362C6.39839 0.415101 6.49168 0.630606 6.49574 0.856476C6.49981 1.08235 6.41432 1.30094 6.2573 1.46622L3.03344 4.62815L15.1111 4.62815C15.3468 4.62815 15.5729 4.72 15.7396 4.88351C15.9063 5.04701 16 5.26877 16 5.5Z" fill="#4D4D4D"/>
</svg>
