<svg width="20" height="20" viewBox="0 0 20 20" fill="none" xmlns="http://www.w3.org/2000/svg">
<path d="M16.3371 8.11186L17.0787 7.37025C17.6686 6.7803 18 5.98014 18 5.14582C18 4.3115 17.6686 3.51135 17.0787 2.92139C16.4887 2.33143 15.6886 2 14.8543 2C14.0201 2 13.2199 2.33143 12.63 2.92139L11.8884 3.663L5.07109 10.4791C4.6095 10.9415 4.37831 11.1727 4.17992 11.4271C3.94584 11.7275 3.74495 12.0523 3.58074 12.3959C3.44234 12.6871 3.33915 12.9975 3.13276 13.6167L2.25759 16.2416M16.3371 8.11186C16.3371 8.11186 14.7619 8.01906 13.3716 6.62864C11.9812 5.23902 11.8892 3.663 11.8892 3.663M16.3371 8.11186L9.52053 14.928C9.05894 15.3896 8.82775 15.6208 8.57336 15.8192C8.27299 16.0533 7.94818 16.2542 7.6046 16.4184C7.31341 16.5568 7.00382 16.66 6.38384 16.8664L3.75913 17.7416M3.75913 17.7416L3.11756 17.956C2.968 18.0062 2.80743 18.0136 2.65388 17.9775C2.50033 17.9414 2.3599 17.8632 2.24836 17.7516C2.13683 17.6401 2.05861 17.4996 2.02251 17.3461C1.98641 17.1925 1.99385 17.0319 2.04399 16.8824L2.25839 16.2408L3.75913 17.7416Z" stroke-width="3"/>
</svg>
