<svg width="18" height="16" viewBox="0 0 18 16" fill="none" xmlns="http://www.w3.org/2000/svg">
<path d="M6.75 4.71315e-07C6.05177 -0.000371318 5.37061 0.219225 4.8004 0.628526C4.23018 1.03783 3.79899 1.61668 3.56625 2.28531H0V4.57063H3.56625C3.79868 5.23969 4.22971 5.81906 4.79992 6.22887C5.37014 6.63867 6.05147 6.85874 6.75 6.85874C7.44853 6.85874 8.12986 6.63867 8.70008 6.22887C9.27029 5.81906 9.70132 5.23969 9.93375 4.57063H18V2.28531H9.93375C9.70101 1.61668 9.26981 1.03783 8.6996 0.628526C8.12939 0.219225 7.44823 -0.000371318 6.75 4.71315e-07ZM5.625 3.42797C5.625 3.12492 5.74353 2.83428 5.9545 2.61999C6.16548 2.4057 6.45163 2.28531 6.75 2.28531C7.04837 2.28531 7.33452 2.4057 7.5455 2.61999C7.75647 2.83428 7.875 3.12492 7.875 3.42797C7.875 3.73102 7.75647 4.02166 7.5455 4.23595C7.33452 4.45024 7.04837 4.57063 6.75 4.57063C6.45163 4.57063 6.16548 4.45024 5.9545 4.23595C5.74353 4.02166 5.625 3.73102 5.625 3.42797ZM11.25 9.14126C10.5518 9.14089 9.87061 9.36048 9.3004 9.76978C8.73019 10.1791 8.29899 10.7579 8.06625 11.4266H0V13.7119H8.06625C8.29868 14.3809 8.72971 14.9603 9.29992 15.3701C9.87014 15.7799 10.5515 16 11.25 16C11.9485 16 12.6299 15.7799 13.2001 15.3701C13.7703 14.9603 14.2013 14.3809 14.4338 13.7119H18V11.4266H14.4338C14.201 10.7579 13.7698 10.1791 13.1996 9.76978C12.6294 9.36048 11.9482 9.14089 11.25 9.14126ZM10.125 12.5692C10.125 12.2662 10.2435 11.9755 10.4545 11.7612C10.6655 11.547 10.9516 11.4266 11.25 11.4266C11.5484 11.4266 11.8345 11.547 12.0455 11.7612C12.2565 11.9755 12.375 12.2662 12.375 12.5692C12.375 12.8723 12.2565 13.1629 12.0455 13.3772C11.8345 13.5915 11.5484 13.7119 11.25 13.7119C10.9516 13.7119 10.6655 13.5915 10.4545 13.3772C10.2435 13.1629 10.125 12.8723 10.125 12.5692Z" fill="#4D4D4D"/>
</svg>
