<svg width="22" height="14" viewBox="0 0 22 14" fill="none" xmlns="http://www.w3.org/2000/svg">
<path fill-rule="evenodd" clip-rule="evenodd" d="M10.7638 13.4456H12.0788C12.0788 13.4456 12.476 13.4005 12.6788 13.1739C12.8655 12.966 12.8595 12.5756 12.8595 12.5756C12.8595 12.5756 12.8338 10.748 13.6528 10.4788C14.4601 10.2138 15.4968 12.2453 16.5956 13.0264C17.4263 13.6175 18.0577 13.488 18.0577 13.488L20.9959 13.4456C20.9959 13.4456 22.5326 13.3476 21.8039 12.0958C21.7443 11.9934 21.3796 11.17 19.6196 9.47777C17.7773 7.7067 18.024 7.99315 20.2431 4.92958C21.5947 3.06383 22.1349 1.92476 21.9661 1.4369C21.805 0.972243 20.8111 1.09508 20.8111 1.09508L17.5032 1.11641C17.5032 1.11641 17.258 1.08178 17.0761 1.19436C16.8984 1.30481 16.7839 1.5622 16.7839 1.5622C16.7839 1.5622 16.2605 3.00598 15.562 4.23382C14.0891 6.8247 13.5001 6.96145 13.2594 6.80058C12.6994 6.42563 12.8392 5.29432 12.8392 4.49059C12.8392 1.97984 13.2069 0.932957 12.1233 0.66197C11.7637 0.571945 11.4991 0.512561 10.5795 0.502955C9.39915 0.49027 8.40011 0.506674 7.83444 0.793745C7.45813 0.984633 7.16783 1.41 7.34463 1.43444C7.56327 1.46476 8.05843 1.57272 8.32097 1.94301C8.65997 2.42068 8.64802 3.49354 8.64802 3.49354C8.64802 3.49354 8.84275 6.44915 8.19314 6.81635C7.74723 7.06817 7.13557 6.55403 5.82232 4.20352C5.14945 2.99947 4.6414 1.66863 4.6414 1.66863C4.6414 1.66863 4.54345 1.41991 4.36871 1.28688C4.15667 1.12569 3.86038 1.07434 3.86038 1.07434L0.71694 1.09569C0.71694 1.09569 0.245037 1.10931 0.0718153 1.32183C-0.0822916 1.51084 0.0595775 1.90188 0.0595775 1.90188C0.0595775 1.90188 2.52057 7.86569 5.30714 10.8712C7.86223 13.6266 10.7638 13.4456 10.7638 13.4456Z"/>
</svg>
