<svg width="120" height="72" viewBox="0 0 120 72" fill="none" xmlns="http://www.w3.org/2000/svg">
<path d="M0.126953 68.4048C0.126953 66.4513 1.71059 64.8677 3.66409 64.8677H115.483C117.437 64.8677 119.021 66.4513 119.021 68.4048C119.021 70.3583 117.437 71.942 115.483 71.942H3.66409C1.71058 71.942 0.126953 70.3583 0.126953 68.4048Z" fill="#202020"/>
<path d="M108.067 0.0581055C109.328 0.0583205 110.349 1.08014 110.349 2.34033V62.5854C110.349 63.8456 109.328 64.8675 108.067 64.8677H11.0811C9.82073 64.8677 8.79883 63.8458 8.79883 62.5854V2.34033C8.79883 1.08 9.82073 0.0581055 11.0811 0.0581055H108.067ZM12.6777 7.58838V57.9077H106.127V7.58838H12.6777Z" fill="#8D79F3"/>
<path d="M20.2087 17.4014C20.2087 16.1411 21.2304 15.1194 22.4908 15.1194H41.888C43.1483 15.1194 44.17 16.1411 44.17 17.4014V28.8115C44.17 30.0719 43.1483 31.0936 41.888 31.0936H22.4908C21.2304 31.0936 20.2087 30.0719 20.2087 28.8115V17.4014Z" fill="#8D79F3" fill-opacity="0.15"/>
<path d="M20.2087 40.5641C20.2087 39.4928 21.0772 38.6244 22.1485 38.6244H96.9989C98.0702 38.6244 98.9387 39.4928 98.9387 40.5641C98.9387 41.6354 98.0702 42.5038 96.9989 42.5038H22.1485C21.0772 42.5038 20.2087 41.6354 20.2087 40.5641Z" fill="#8D79F3" fill-opacity="0.15"/>
<path d="M20.2087 47.8666C20.2087 46.7953 21.0772 45.9269 22.1485 45.9269H96.9989C98.0702 45.9269 98.9387 46.7953 98.9387 47.8666C98.9387 48.9379 98.0702 49.8063 96.9989 49.8063H22.1485C21.0772 49.8063 20.2087 48.9379 20.2087 47.8666Z" fill="#8D79F3" fill-opacity="0.15"/>
<path d="M47.593 17.4014C47.593 16.1411 48.6147 15.1194 49.875 15.1194H69.2723C70.5326 15.1194 71.5543 16.1411 71.5543 17.4014V28.8115C71.5543 30.0719 70.5326 31.0936 69.2723 31.0936H49.875C48.6147 31.0936 47.593 30.0719 47.593 28.8115V17.4014Z" fill="#8D79F3" fill-opacity="0.15"/>
<path d="M74.9775 17.4014C74.9775 16.1411 75.9992 15.1194 77.2596 15.1194H96.6568C97.9171 15.1194 98.9388 16.1411 98.9388 17.4014V28.8115C98.9388 30.0719 97.9171 31.0936 96.6568 31.0936H77.2596C75.9992 31.0936 74.9775 30.0719 74.9775 28.8115V17.4014Z" fill="#8D79F3" fill-opacity="0.15"/>
<path d="M60.8519 22.1027C61.0881 21.2447 61.931 20.701 62.8101 20.8394C63.8409 21.0018 64.501 22.025 64.224 23.0311L58.5238 43.7357C58.2875 44.5937 57.4447 45.1375 56.5656 44.999C55.5348 44.8367 54.8747 43.8135 55.1517 42.8074L60.8519 22.1027ZM74.1789 32.9192L68.4071 28.4642C68.0308 28.1738 67.8105 27.7254 67.8105 27.2501C67.8105 25.9765 69.2731 25.2578 70.2813 26.036L78.1727 32.127C78.6916 32.5275 78.6913 33.3106 78.1721 33.7107L70.2815 39.7916C69.2726 40.5691 67.8105 39.8499 67.8105 38.5763C67.8105 38.1001 68.0316 37.6508 68.409 37.3604L74.1789 32.9192ZM41.2035 33.7107C40.6843 33.3106 40.684 32.5275 41.2029 32.127L49.0943 26.036C50.1026 25.2578 51.5652 25.9765 51.5652 27.2501C51.5652 27.7254 51.3448 28.1738 50.9686 28.4642L45.1967 32.9192L50.9667 37.3604C51.3441 37.6508 51.5652 38.1001 51.5652 38.5763C51.5652 39.8499 50.103 40.5691 49.0942 39.7916L41.2035 33.7107Z" fill="#202020"/>
</svg>
