<svg width="120" height="72" viewBox="0 0 120 72" fill="none" xmlns="http://www.w3.org/2000/svg">
<path d="M0.236084 68.4048C0.236084 66.4513 1.81972 64.8677 3.77323 64.8677H115.593C117.546 64.8677 119.13 66.4513 119.13 68.4048C119.13 70.3583 117.546 71.942 115.593 71.942H3.77322C1.81971 71.942 0.236084 70.3583 0.236084 68.4048Z" fill="#202020"/>
<path d="M107.72 0.0581055C108.98 0.0583178 110.001 1.08014 110.001 2.34033V62.5854C110.001 63.8456 108.98 64.8675 107.72 64.8677H10.7336C9.47331 64.8677 8.45142 63.8458 8.45142 62.5854V2.34033C8.45142 1.08 9.47331 0.0581055 10.7336 0.0581055H107.72ZM12.5588 7.24658V56.9946H106.35V7.24658H12.5588Z" fill="#8D79F3"/>
<path d="M20.3179 17.4014C20.3179 16.1411 21.3396 15.1194 22.5999 15.1194H41.9971C43.2575 15.1194 44.2792 16.1411 44.2792 17.4014V28.8115C44.2792 30.0719 43.2575 31.0936 41.9971 31.0936H22.5999C21.3396 31.0936 20.3179 30.0719 20.3179 28.8115V17.4014Z" fill="#8D79F3" fill-opacity="0.15"/>
<path d="M20.3179 40.5641C20.3179 39.4928 21.1863 38.6244 22.2576 38.6244H97.1081C98.1794 38.6244 99.0478 39.4928 99.0478 40.5641C99.0478 41.6354 98.1794 42.5038 97.1081 42.5038H22.2576C21.1863 42.5038 20.3179 41.6354 20.3179 40.5641Z" fill="#8D79F3" fill-opacity="0.15"/>
<path d="M20.3179 47.8666C20.3179 46.7953 21.1863 45.9269 22.2576 45.9269H97.1081C98.1794 45.9269 99.0478 46.7953 99.0478 47.8666C99.0478 48.9379 98.1794 49.8063 97.1081 49.8063H22.2576C21.1863 49.8063 20.3179 48.9379 20.3179 47.8666Z" fill="#8D79F3" fill-opacity="0.15"/>
<path d="M47.7021 17.4014C47.7021 16.1411 48.7238 15.1194 49.9842 15.1194H69.3814C70.6417 15.1194 71.6634 16.1411 71.6634 17.4014V28.8115C71.6634 30.0719 70.6417 31.0936 69.3814 31.0936H49.9842C48.7238 31.0936 47.7021 30.0719 47.7021 28.8115V17.4014Z" fill="#8D79F3" fill-opacity="0.15"/>
<path d="M75.0864 17.4014C75.0864 16.1411 76.1081 15.1194 77.3685 15.1194H96.7657C98.026 15.1194 99.0477 16.1411 99.0477 17.4014V28.8115C99.0477 30.0719 98.026 31.0936 96.7657 31.0936H77.3685C76.1081 31.0936 75.0864 30.0719 75.0864 28.8115V17.4014Z" fill="#8D79F3" fill-opacity="0.15"/>
<path d="M71.7195 26.1306C72.2535 25.5967 72.2535 24.7068 71.7195 24.2003L68.516 20.9968C68.0095 20.4628 67.1196 20.4628 66.5857 20.9968L64.0667 23.5021L69.2005 28.6359M47.4741 40.1083V45.2422H52.608L67.7494 30.0871L62.6155 24.9532L47.4741 40.1083Z" fill="#202020"/>
</svg>
