<svg width="119" height="72" viewBox="0 0 119 72" fill="none" xmlns="http://www.w3.org/2000/svg">
<path d="M0.100342 68.3699C0.100342 66.4185 1.68227 64.8365 3.63367 64.8365H115.332C117.284 64.8365 118.866 66.4185 118.866 68.3699C118.866 70.3213 117.284 71.9032 115.332 71.9032H3.63367C1.68227 71.9032 0.100342 70.3213 0.100342 68.3699Z" fill="#202020"/>
<path d="M107.924 0.0969238C109.183 0.0969277 110.203 1.11738 110.203 2.37622V62.5569C110.203 63.8158 109.183 64.8362 107.924 64.8362H11.0422C9.78339 64.836 8.76294 63.8158 8.76294 62.5569V2.37622C8.76308 1.11746 9.78348 0.0970693 11.0422 0.0969238H107.924ZM12.6379 7.61938V57.884H105.987V7.61938H12.6379Z" fill="#8D79F3"/>
<path d="M20.1604 17.4215C20.1604 16.1626 21.181 15.142 22.44 15.142H41.8163C43.0752 15.142 44.0958 16.1626 44.0958 17.4215V28.8194C44.0958 30.0783 43.0752 31.0989 41.8163 31.0989H22.44C21.181 31.0989 20.1604 30.0783 20.1604 28.8194V17.4215Z" fill="#8D79F3" fill-opacity="0.15"/>
<path d="M20.1604 40.5592C20.1604 39.4891 21.0279 38.6216 22.098 38.6216H96.8678C97.9379 38.6216 98.8054 39.4891 98.8054 40.5592C98.8054 41.6293 97.9379 42.4968 96.8678 42.4968H22.098C21.0279 42.4968 20.1604 41.6293 20.1604 40.5592Z" fill="#8D79F3" fill-opacity="0.15"/>
<path d="M20.1604 47.8538C20.1604 46.7836 21.0279 45.9161 22.098 45.9161H96.8678C97.9379 45.9161 98.8054 46.7836 98.8054 47.8538C98.8054 48.9239 97.9379 49.7914 96.8678 49.7914H22.098C21.0279 49.7914 20.1604 48.9239 20.1604 47.8538Z" fill="#8D79F3" fill-opacity="0.15"/>
<path d="M47.5154 17.4215C47.5154 16.1626 48.536 15.142 49.7949 15.142H69.1713C70.4302 15.142 71.4508 16.1626 71.4508 17.4215V28.8194C71.4508 30.0783 70.4302 31.0989 69.1713 31.0989H49.7949C48.536 31.0989 47.5154 30.0783 47.5154 28.8194V17.4215Z" fill="#8D79F3" fill-opacity="0.15"/>
<path d="M74.8701 17.4215C74.8701 16.1626 75.8907 15.142 77.1497 15.142H96.526C97.785 15.142 98.8056 16.1626 98.8056 17.4215V28.8194C98.8056 30.0783 97.785 31.0989 96.526 31.0989H77.1497C75.8907 31.0989 74.8701 30.0783 74.8701 28.8194V17.4215Z" fill="#8D79F3" fill-opacity="0.15"/>
<path d="M48.9971 20.6129H50.3649C51.1203 20.6129 51.7326 21.2253 51.7326 21.9807C51.7326 22.736 51.1203 23.3484 50.3649 23.3484H49.5442C49.2421 23.3484 48.9971 23.5933 48.9971 23.8955V30.1871C48.9971 30.9126 48.7089 31.6083 48.1959 32.1214C47.6829 32.6344 46.9872 32.9226 46.2617 32.9226C46.9872 32.9226 47.6829 33.2108 48.1959 33.7238C48.7089 34.2368 48.9971 34.9325 48.9971 35.658V41.9496C48.9971 42.2518 49.2421 42.4967 49.5442 42.4967H50.3649C51.1203 42.4967 51.7326 43.1091 51.7326 43.8645C51.7326 44.6198 51.1203 45.2322 50.3649 45.2322H48.9971C47.5337 44.8629 46.2617 44.0012 46.2617 42.4967V37.0258C46.2617 36.3003 45.9735 35.6045 45.4605 35.0915C44.9475 34.5785 44.2517 34.2903 43.5262 34.2903C42.7708 34.2903 42.1584 33.6779 42.1584 32.9226C42.1584 32.1672 42.7708 31.5548 43.5262 31.5548C44.2517 31.5548 44.9475 31.2666 45.4605 30.7536C45.9735 30.2406 46.2617 29.5448 46.2617 28.8193V23.3484C46.2617 22.6229 46.5499 21.9271 47.0629 21.4141C47.5759 20.9011 48.2716 20.6129 48.9971 20.6129ZM70.1971 20.6129C70.9226 20.6129 71.6184 20.9011 72.1314 21.4141C72.6444 21.9271 72.9326 22.6229 72.9326 23.3484V28.8193C72.9326 29.5448 73.2208 30.2406 73.7338 30.7536C74.2468 31.2666 74.9425 31.5548 75.668 31.5548C76.4234 31.5548 77.0358 32.1672 77.0358 32.9226C77.0358 33.6779 76.4234 34.2903 75.668 34.2903C74.9425 34.2903 74.2468 34.5785 73.7338 35.0915C73.2208 35.6045 72.9326 36.3003 72.9326 37.0258V42.4967C72.9326 43.2222 72.6444 43.918 72.1314 44.431C71.6184 44.944 70.9226 45.2322 70.1971 45.2322H68.8293C68.074 45.2322 67.4616 44.6198 67.4616 43.8645C67.4616 43.1091 68.074 42.4967 68.8293 42.4967H69.65C69.9521 42.4967 70.1971 42.2518 70.1971 41.9496V35.658C70.1971 34.9325 70.4853 34.2368 70.9983 33.7238C71.5113 33.2108 72.2071 32.9226 72.9326 32.9226C72.2071 32.9226 71.5113 32.6344 70.9983 32.1214C70.4853 31.6083 70.1971 30.9126 70.1971 30.1871V23.8955C70.1971 23.5933 69.9521 23.3484 69.65 23.3484H68.8293C68.074 23.3484 67.4616 22.736 67.4616 21.9807C67.4616 21.2253 68.074 20.6129 68.8293 20.6129H70.1971ZM59.5971 37.0258C59.9599 37.0258 60.3077 37.1699 60.5643 37.4264C60.8208 37.6829 60.9649 38.0308 60.9649 38.3935C60.9649 38.7562 60.8208 39.1041 60.5643 39.3606C60.3077 39.6171 59.9599 39.7612 59.5971 39.7612C59.2344 39.7612 58.8865 39.6171 58.63 39.3606C58.3735 39.1041 58.2294 38.7562 58.2294 38.3935C58.2294 38.0308 58.3735 37.6829 58.63 37.4264C58.8865 37.1699 59.2344 37.0258 59.5971 37.0258ZM54.1262 37.0258C54.4889 37.0258 54.8368 37.1699 55.0933 37.4264C55.3498 37.6829 55.4939 38.0308 55.4939 38.3935C55.4939 38.7562 55.3498 39.1041 55.0933 39.3606C54.8368 39.6171 54.4889 39.7612 54.1262 39.7612C53.7634 39.7612 53.4155 39.6171 53.159 39.3606C52.9025 39.1041 52.7584 38.7562 52.7584 38.3935C52.7584 38.0308 52.9025 37.6829 53.159 37.4264C53.4155 37.1699 53.7634 37.0258 54.1262 37.0258ZM65.0681 37.0258C65.4308 37.0258 65.7787 37.1699 66.0352 37.4264C66.2917 37.6829 66.4358 38.0308 66.4358 38.3935C66.4358 38.7562 66.2917 39.1041 66.0352 39.3606C65.7787 39.6171 65.4308 39.7612 65.0681 39.7612C64.7053 39.7612 64.3574 39.6171 64.1009 39.3606C63.8444 39.1041 63.7003 38.7562 63.7003 38.3935C63.7003 38.0308 63.8444 37.6829 64.1009 37.4264C64.3574 37.1699 64.7053 37.0258 65.0681 37.0258Z" fill="#202020"/>
</svg>
