<svg width="20" height="26" viewBox="0 0 20 26" fill="none" xmlns="http://www.w3.org/2000/svg">
<path fill-rule="evenodd" clip-rule="evenodd" d="M2.79625 7.625C2.88019 6.28767 3.47065 5.0326 4.4474 4.1153C5.42416 3.19799 6.71379 2.68741 8.05375 2.6875H8.75V1.75C8.75 1.41848 8.8817 1.10054 9.11612 0.866116C9.35054 0.631696 9.66848 0.5 10 0.5C10.3315 0.5 10.6495 0.631696 10.8839 0.866116C11.1183 1.10054 11.25 1.41848 11.25 1.75V2.6875H11.9462C13.2862 2.68741 14.5758 3.19799 15.5526 4.1153C16.5294 5.0326 17.1198 6.28767 17.2038 7.625L17.48 12.0425C17.5868 13.7265 18.1522 15.3492 19.115 16.735C19.3142 17.0213 19.4359 17.3543 19.4683 17.7016C19.5007 18.0489 19.4427 18.3987 19.2999 18.7169C19.157 19.0352 18.9343 19.311 18.6533 19.5177C18.3723 19.7243 18.0426 19.8548 17.6962 19.8962L13.4375 20.4062V21.75C13.4375 22.6617 13.0753 23.536 12.4307 24.1807C11.786 24.8253 10.9117 25.1875 10 25.1875C9.08832 25.1875 8.21398 24.8253 7.56932 24.1807C6.92466 23.536 6.5625 22.6617 6.5625 21.75V20.4062L2.30375 19.895C1.95762 19.8534 1.62813 19.723 1.34731 19.5164C1.06648 19.3098 0.843854 19.0341 0.701063 18.7161C0.558273 18.398 0.50017 18.0485 0.532399 17.7013C0.564629 17.3542 0.686096 17.0213 0.884998 16.735C1.8478 15.3492 2.41321 13.7265 2.52 12.0425L2.79625 7.625ZM8.4375 21.75C8.4375 22.1644 8.60212 22.5618 8.89514 22.8549C9.18817 23.1479 9.5856 23.3125 10 23.3125C10.4144 23.3125 10.8118 23.1479 11.1049 22.8549C11.3979 22.5618 11.5625 22.1644 11.5625 21.75V20.8125H8.4375V21.75Z" fill="#333333" fill-opacity="0.2"/>
</svg>
